<?xml version="1.0" standalone="no"?>
<!DOCTYPE svg PUBLIC "-//W3C//DTD SVG 20010904//EN"
 "http://www.w3.org/TR/2001/REC-SVG-20010904/DTD/svg10.dtd">
<svg version="1.0" xmlns="http://www.w3.org/2000/svg"
 width="700.000000pt" height="700.000000pt" viewBox="0 0 700.000000 700.000000"
 preserveAspectRatio="xMidYMid meet">
<metadata>
Created by potrace 1.11, written by Peter Selinger 2001-2013
</metadata>
<g transform="translate(0.000000,700.000000) scale(0.100000,-0.100000)"
fill="#000000" stroke="none">
<path d="M3735 6956 c-147 -43 -240 -77 -360 -131 -133 -60 -171 -79 -263
-132 -368 -212 -664 -494 -904 -863 -153 -234 -297 -542 -393 -840 -37 -115
-109 -384 -120 -450 -3 -19 -8 -42 -10 -50 -2 -8 -7 -28 -10 -45 -2 -16 -9
-55 -15 -85 -5 -30 -12 -75 -15 -100 -3 -25 -7 -56 -10 -70 -8 -41 -13 -82
-20 -150 -3 -36 -8 -81 -10 -100 -33 -265 -39 -835 -11 -1072 2 -16 1 -28 -2
-28 -24 0 -387 264 -482 351 -25 22 -56 51 -70 63 -66 59 -226 234 -269 294
-22 32 -33 35 -37 9 -1 -7 -9 -41 -18 -77 -8 -36 -18 -81 -21 -100 -3 -19 -8
-42 -10 -50 -4 -17 -15 -103 -30 -250 -9 -80 -9 -362 -1 -450 11 -116 23 -204
42 -310 133 -735 595 -1427 1234 -1849 267 -177 642 -338 920 -396 90 -19 236
-45 280 -51 30 -3 64 -8 75 -11 11 -3 126 -6 255 -8 272 -4 368 4 605 51 359
72 697 211 1008 417 81 53 203 141 217 157 3 3 34 30 70 60 108 91 198 180
285 280 92 107 221 278 262 348 15 26 38 62 50 80 34 51 136 256 178 357 106
255 177 532 205 806 12 115 19 353 12 413 l-4 37 -76 -77 c-179 -182 -383
-291 -554 -295 -103 -3 -100 -13 -36 119 75 152 152 395 174 542 3 19 7 42 9
50 18 63 25 379 12 510 -38 386 -180 755 -424 1108 -36 51 -66 92 -68 90 -1
-2 -27 -50 -57 -108 -81 -155 -132 -227 -243 -336 -88 -87 -194 -154 -300
-190 -68 -24 -97 -28 -190 -28 -76 0 -126 5 -163 16 -220 70 -389 232 -512
491 -91 192 -147 408 -167 652 -15 174 -9 527 13 695 25 202 91 545 129 674
18 61 19 76 3 76 -7 -1 -80 -20 -163 -44z"/>
</g>
</svg>
